<svg width="211" height="210" viewBox="0 0 211 210" fill="none" xmlns="http://www.w3.org/2000/svg">
<rect width="210" height="210" rx="105" transform="matrix(1 0 0 -1 0.24292 210)" fill="black"/>
<path d="M55.0837 126.923L66.3717 115.9V68.5466L55.0837 79.7904V126.923Z" fill="white"/>
<path d="M84.1949 98.4965L73.501 108.939V61.4453L84.1949 50.7933V98.4965Z" fill="white"/>
<path d="M91.3242 91.535V43.692L102.018 33.04V81.0927L91.3242 91.535Z" fill="white"/>
<path d="M109.147 81.1064V33.054L119.841 43.7479V91.5898L109.147 81.1064Z" fill="white"/>
<path d="M126.971 98.5788V50.8772L137.664 61.5711V109.062L126.971 98.5788Z" fill="white"/>
<path d="M144.794 116.051V68.7004L155.884 79.7904V126.923L144.794 116.051Z" fill="white"/>
<path d="M144.992 121.807L146.559 123.359L154.494 131.28L154.523 131.251L154.524 131.253L144.992 140.785V121.807Z" fill="white"/>
<path d="M76.8657 111.322L73.699 114.483V148.04L84.3929 158.692V110.989L80.762 107.444L76.8657 111.322Z" fill="white"/>
<path d="M66.1737 121.993L56.8707 131.278L66.1737 140.544V121.993Z" fill="white"/>
<path d="M102.216 128.393V176.446L91.5222 165.794V117.951L102.216 128.393Z" fill="white"/>
<path d="M109.345 128.372L120.039 117.868V165.738L109.345 176.432V128.372Z" fill="white"/>
<path d="M127.169 158.608V110.865L130.574 107.52L137.466 114.35V148.311L127.169 158.608Z" fill="white"/>
</svg>
