<svg width="304" height="303" viewBox="0 0 304 303" fill="none" xmlns="http://www.w3.org/2000/svg">
<circle cx="151.93" cy="151.796" r="151.2" fill="#121212"/>
<circle cx="151.93" cy="151.796" r="133" stroke="#5CDE66" stroke-width="7" stroke-linecap="round" stroke-linejoin="bevel" stroke-dasharray="70 70"/>
<path d="M202.84 161.607V202.733L182.882 222.692H161.31V244.868H144.174V222.692H120.386L100.83 203.136V187.815H119.982V196.887L128.651 205.757H144.174V158.986H120.789L101.234 139.229V101.127L120.789 81.5715H144.174V59.3955H161.31V81.5715H181.672L201.227 101.127V116.65H182.277V107.376L173.406 98.5059H161.31V142.052H183.285L202.84 161.607ZM144.174 142.052V98.5059H129.256L120.386 107.376V133.181L129.256 142.052H144.174ZM183.688 167.655L174.818 158.986H161.31V205.757H174.818L183.688 196.685V167.655Z" fill="white"/>
</svg>
