<svg width="375" height="375" viewBox="0 0 375 375" fill="none" xmlns="http://www.w3.org/2000/svg">
<rect width="375" height="375" rx="100" transform="matrix(1 0 0 -1 0 375)" fill="#1B1B1B"/>
<path d="M98 226.648L118.157 206.965V122.405L98 142.483V226.648Z" fill="#5CDE66"/>
<path d="M149.984 175.887L130.888 194.534V109.724L149.984 90.7023V175.887Z" fill="#5CDE66"/>
<path d="M162.715 163.455V78.0214L181.811 59V144.808L162.715 163.455Z" fill="#5CDE66"/>
<path d="M194.542 144.833V59.025L213.639 78.1212V163.553L194.542 144.833Z" fill="#5CDE66"/>
<path d="M226.369 176.033V90.8521L245.466 109.948V194.754L226.369 176.033Z" fill="#5CDE66"/>
<path d="M258.196 207.234V122.679L278 142.483V226.648L258.196 207.234Z" fill="#5CDE66"/>
<path d="M258.55 217.512L261.348 220.285L275.519 234.428L275.57 234.377L275.573 234.38L258.55 251.402V217.512Z" fill="#5CDE66"/>
<path d="M136.897 198.79L131.242 204.433V264.358L150.338 283.379V198.195L143.854 191.863L136.897 198.79Z" fill="#5CDE66"/>
<path d="M117.804 217.845L101.191 234.425L117.804 250.972V217.845Z" fill="#5CDE66"/>
<path d="M182.165 229.273V315.081L163.069 296.06V210.626L182.165 229.273Z" fill="#5CDE66"/>
<path d="M194.896 229.236L213.992 210.478V295.96L194.896 315.056V229.236Z" fill="#5CDE66"/>
<path d="M226.723 283.229V197.973L232.803 192L245.112 204.196V264.84L226.723 283.229Z" fill="#5CDE66"/>
</svg>
