<svg width="11" height="11" viewBox="0 0 11 11" fill="none" xmlns="http://www.w3.org/2000/svg">
<g clip-path="url(#clip0_1719_587)">
<path d="M8.96542 2.23145C8.32806 1.939 7.64458 1.72353 6.92996 1.60013C6.91694 1.59775 6.90394 1.6037 6.89724 1.6156C6.80934 1.77194 6.71197 1.9759 6.64379 2.13621C5.87517 2.02114 5.11049 2.02114 4.35763 2.13621C4.28944 1.97234 4.18854 1.77194 4.10024 1.6156C4.09354 1.60409 4.08054 1.59814 4.06752 1.60013C3.3533 1.72314 2.66982 1.9386 2.03206 2.23145C2.02654 2.23383 2.0218 2.2378 2.01866 2.24296C0.722247 4.17977 0.367104 6.06898 0.541325 7.93477C0.542113 7.9439 0.547237 7.95263 0.554333 7.95818C1.40967 8.58632 2.23821 8.96766 3.05137 9.22042C3.06438 9.22439 3.07817 9.21963 3.08645 9.20891C3.2788 8.94624 3.45027 8.66926 3.59728 8.378C3.60596 8.36094 3.59768 8.3407 3.57994 8.33396C3.30797 8.23079 3.049 8.105 2.79989 7.96215C2.78018 7.95064 2.77861 7.92246 2.79673 7.90897C2.84916 7.86969 2.90159 7.82881 2.95165 7.78755C2.9607 7.78001 2.97332 7.77842 2.98397 7.78318C4.62054 8.53038 6.39231 8.53038 8.00956 7.78318C8.02021 7.77803 8.03283 7.77962 8.04228 7.78715C8.09235 7.82842 8.14477 7.86969 8.19759 7.90897C8.21572 7.92246 8.21454 7.95064 8.19483 7.96215C7.94572 8.10777 7.68675 8.23079 7.41438 8.33356C7.39665 8.34031 7.38876 8.36094 7.39744 8.378C7.54761 8.66886 7.71907 8.94583 7.90787 9.20852C7.91576 9.21963 7.92994 9.22439 7.94296 9.22042C8.76006 8.96766 9.58859 8.58632 10.4439 7.95818C10.4514 7.95263 10.4562 7.94429 10.4569 7.93517C10.6655 5.77811 10.1077 3.90439 8.97842 2.24335C8.97566 2.2378 8.97094 2.23383 8.96542 2.23145ZM3.84168 6.7987C3.34896 6.7987 2.94297 6.34635 2.94297 5.79081C2.94297 5.23528 3.34108 4.78293 3.84168 4.78293C4.3462 4.78293 4.74825 5.23925 4.74037 5.79081C4.74037 6.34635 4.34225 6.7987 3.84168 6.7987ZM7.16448 6.7987C6.67177 6.7987 6.26579 6.34635 6.26579 5.79081C6.26579 5.23528 6.66389 4.78293 7.16448 4.78293C7.66901 4.78293 8.07106 5.23925 8.06318 5.79081C8.06318 6.34635 7.66901 6.7987 7.16448 6.7987Z" fill="white"/>
</g>
<defs>
<clipPath id="clip0_1719_587">
<rect width="10" height="10" fill="white" transform="translate(0.5 0.5)"/>
</clipPath>
</defs>
</svg>
