<svg width="14" height="14" viewBox="0 0 14 14" fill="none" xmlns="http://www.w3.org/2000/svg">
<path d="M8.96235 13.0587V1.94141C8.96235 1.38912 8.51464 0.941406 7.96235 0.941406H5.92352C5.37124 0.941406 4.92352 1.38912 4.92352 1.94141V13.0587M8.96235 13.0587L8.96132 6.51223C8.96124 5.95988 9.40898 5.51207 9.96132 5.51207H12C12.5523 5.51207 13 5.95979 13 6.51207V12.0587C13 12.611 12.5523 13.0587 12 13.0587H8.96235ZM8.96235 13.0587H4.92352M4.92352 13.0587V10.0587C4.92352 9.50646 4.47581 9.05874 3.92352 9.05874H2C1.44772 9.05874 1 9.50646 1 10.0587V12.0587C1 12.611 1.44771 13.0587 2 13.0587H4.92352Z" stroke="#F6F6F6" stroke-linecap="round" stroke-linejoin="round"/>
</svg>
