<svg width="14" height="14" viewBox="0 0 14 14" fill="none" xmlns="http://www.w3.org/2000/svg">
<path d="M12.5 7C12.5 3.96243 10.0376 1.5 7 1.5C3.96243 1.5 1.5 3.96243 1.5 7C1.5 10.0376 3.96243 12.5 7 12.5C10.0376 12.5 12.5 10.0376 12.5 7ZM6.5 9.25V9.22363C6.5 8.94749 6.72386 8.72363 7 8.72363C7.27614 8.72363 7.5 8.94749 7.5 9.22363V9.25C7.5 9.52614 7.27614 9.75 7 9.75C6.72386 9.75 6.5 9.52614 6.5 9.25ZM6.5 7V4C6.5 3.72386 6.72386 3.5 7 3.5C7.27614 3.5 7.5 3.72386 7.5 4V7C7.5 7.27614 7.27614 7.5 7 7.5C6.72386 7.5 6.5 7.27614 6.5 7ZM13.5 7C13.5 10.5899 10.5899 13.5 7 13.5C3.41015 13.5 0.5 10.5899 0.5 7C0.5 3.41015 3.41015 0.5 7 0.5C10.5899 0.5 13.5 3.41015 13.5 7Z" fill="#5D5D5D"/>
</svg>
