<svg width="11" height="11" viewBox="0 0 11 11" fill="none" xmlns="http://www.w3.org/2000/svg">
<g clip-path="url(#clip0_1719_590)">
<path d="M10.5 5.42832C10.5 6.75304 10.278 7.8276 10.004 7.8276C9.7301 7.8276 9.50818 6.75333 9.50818 5.42832C9.50818 4.10332 9.73019 3.02905 10.004 3.02905C10.2779 3.02905 10.5 4.10322 10.5 5.42832Z" fill="white"/>
<path d="M9.23454 5.42823C9.23454 6.90711 8.60318 8.10646 7.82436 8.10646C7.04554 8.10646 6.41418 6.90711 6.41418 5.42823C6.41418 3.94935 7.04544 2.75 7.82426 2.75C8.60309 2.75 9.23444 3.94896 9.23444 5.42823" fill="white"/>
<path d="M6.1406 5.42813C6.1406 6.99926 4.87789 8.27291 3.32035 8.27291C1.7628 8.27291 0.5 6.99897 0.5 5.42813C0.5 3.85728 1.76271 2.58325 3.32035 2.58325C4.87799 2.58325 6.1406 3.857 6.1406 5.42813Z" fill="white"/>
</g>
<defs>
<clipPath id="clip0_1719_590">
<rect width="10" height="10" fill="white" transform="translate(0.5 0.5)"/>
</clipPath>
</defs>
</svg>
